<?xml version="1.0" encoding="iso-8859-1"?>
<!-- Generator: Adobe Illustrator 19.0.0, SVG Export Plug-In . SVG Version: 6.00 Build 0)  -->
<svg version="1.1" id="Layer_1" xmlns="http://www.w3.org/2000/svg" xmlns:xlink="http://www.w3.org/1999/xlink" x="0px" y="0px"
	 viewBox="0 0 512 512" style="enable-background:new 0 0 512 512;" xml:space="preserve">
<g>
	<g>
		<path d="M381.277,220.051v-59.805l21.787-76.255v-2.289C403.064,36.652,366.412,0,321.362,0C294.665,0,270.918,12.87,256,32.732
			C241.082,12.87,217.335,0,190.638,0c-45.051,0-81.702,36.652-81.702,81.702v2.289l21.787,76.255v59.805L13.617,501.106h24.511
			c15.758,0,23.105,2.205,31.614,4.757C79.33,508.74,90.195,512,110.749,512s31.419-3.26,41.006-6.136
			c8.509-2.552,15.858-4.757,31.614-4.757c15.758,0,23.106,2.205,31.615,4.758c9.587,2.876,20.453,6.135,41.007,6.135
			s31.422-3.26,41.008-6.135c8.51-2.553,15.859-4.758,31.617-4.758c15.759,0,23.109,2.205,31.619,4.758
			c9.587,2.876,20.453,6.135,41.009,6.135c20.555,0,31.422-3.259,41.009-6.135c8.511-2.554,15.861-4.758,31.62-4.758h24.511
			L381.277,220.051z M190.638,32.681c27.031,0,49.021,21.991,49.021,49.021h32.681c0-27.03,21.99-49.021,49.021-49.021
			c26.318,0,47.859,20.845,48.976,46.893l-17.727,62.043H159.389l-17.726-62.043C142.779,53.526,164.32,32.681,190.638,32.681z
			 M348.596,174.298v32.681H163.404v-32.681H348.596z M432.863,474.561c-8.511,2.553-15.861,4.758-31.619,4.758
			c-15.759,0-23.109-2.205-31.619-4.758c-9.587-2.876-20.453-6.135-41.009-6.135c-20.554,0-31.422,3.26-41.009,6.135
			c-8.509,2.553-15.859,4.758-31.617,4.758c-15.757,0-23.105-2.205-31.614-4.757c-9.588-2.876-20.453-6.136-41.008-6.136
			c-20.553,0-31.419,3.26-41.006,6.136c-8.509,2.552-15.858,4.757-31.614,4.757c-15.758,0-23.105-2.205-31.614-4.757
			c-5.007-1.502-10.361-3.109-17.261-4.301l96.084-230.602h196.085l96.084,230.602C443.225,471.453,437.869,473.06,432.863,474.561z
			"/>
	</g>
</g>
<g>
</g>
<g>
</g>
<g>
</g>
<g>
</g>
<g>
</g>
<g>
</g>
<g>
</g>
<g>
</g>
<g>
</g>
<g>
</g>
<g>
</g>
<g>
</g>
<g>
</g>
<g>
</g>
<g>
</g>
</svg>
