<?xml version="1.0" encoding="iso-8859-1"?>
<!-- Generator: Adobe Illustrator 19.0.0, SVG Export Plug-In . SVG Version: 6.00 Build 0)  -->
<svg version="1.1" id="Layer_1" xmlns="http://www.w3.org/2000/svg" xmlns:xlink="http://www.w3.org/1999/xlink" x="0px" y="0px"
	 viewBox="0 0 512 512" style="enable-background:new 0 0 512 512;" xml:space="preserve">
<g>
	<g>
		<path d="M409.34,152.055c-7.985-16.86-24.52-28.194-42.919-29.778c-3.485-58.066-51.306-104.558-109.584-104.99
			c-0.279-0.002-0.558-0.004-0.837-0.004s-0.557,0.001-0.837,0.004c-58.28,0.432-106.099,46.924-109.584,104.99
			c-18.4,1.584-34.934,12.919-42.919,29.778L0,368.778l100.785,50.393l9.656-19.31v94.857h291.118V399.86l9.656,19.31L512,368.778
			L409.34,152.055z M238.533,459.783h-93.158v-34.934h93.158V459.783z M238.534,389.914h-0.001h-93.158V251.877L85.163,372.302
			l-38.952-19.476l88.019-185.817c2.875-6.068,9.071-9.99,15.787-9.99h10.676l17.245,4.311l-8.933,44.665l34.256,6.852l8.607-43.033
			l26.666,6.667V389.914z M180.387,125.934c1.63-40.631,34.655-73.415,75.035-73.715c0.193-0.001,0.384,0.009,0.578,0.009
			s0.384-0.012,0.578-0.009c40.38,0.299,73.405,33.084,75.035,73.715L256,144.837L180.387,125.934z M366.625,459.783h-93.158
			v-34.934h93.158V459.783z M366.625,251.877v138.038h-93.158V176.479l26.666-6.667l8.607,43.033l34.256-6.852l-8.933-44.664
			l17.245-4.311h10.676c6.716,0,12.912,3.921,15.787,9.99l88.018,185.817l-38.952,19.476L366.625,251.877z"/>
	</g>
</g>
<g>
	<g>
		<polygon points="256,87.152 202.186,87.152 256,140.965 309.814,87.152 		"/>
	</g>
</g>
<g>
	<g>
		<rect x="296.754" y="320.044" width="46.579" height="34.934"/>
	</g>
</g>
<g>
	<g>
		<rect x="168.662" y="320.044" width="46.579" height="34.934"/>
	</g>
</g>
<g>
</g>
<g>
</g>
<g>
</g>
<g>
</g>
<g>
</g>
<g>
</g>
<g>
</g>
<g>
</g>
<g>
</g>
<g>
</g>
<g>
</g>
<g>
</g>
<g>
</g>
<g>
</g>
<g>
</g>
</svg>
