<?xml version="1.0" encoding="iso-8859-1"?>
<!-- Generator: Adobe Illustrator 19.0.0, SVG Export Plug-In . SVG Version: 6.00 Build 0)  -->
<svg version="1.1" id="Capa_1" xmlns="http://www.w3.org/2000/svg" xmlns:xlink="http://www.w3.org/1999/xlink" x="0px" y="0px"
	 viewBox="0 0 490 490" style="enable-background:new 0 0 490 490;" xml:space="preserve">
<path id="XMLID_1319_" d="M415,0H75c-8.284,0-15,6.716-15,15v460c0,8.284,6.716,15,15,15h100c7.518,0,13.875-5.565,14.868-13.018
	L228.133,190h33.734l38.265,286.982C301.125,484.435,307.482,490,315,490h100c8.284,0,15-6.716,15-15V15C430,6.716,423.284,0,415,0z
	 M90,30h29.5v80H90V30z M400,460h-71.867l-38.265-286.982C288.875,165.565,282.518,160,275,160h-60
	c-7.518,0-13.875,5.565-14.868,13.018L161.867,460H90V140h45c8.284,0,15-6.716,15-15c0-1.333-0.174-2.625-0.5-3.855V30H230v65
	c0,8.284,6.716,15,15,15s15-6.716,15-15V30h80v95c0,8.284,6.716,15,15,15h45V460z M400,110h-30V30h30V110z"/>
<g>
</g>
<g>
</g>
<g>
</g>
<g>
</g>
<g>
</g>
<g>
</g>
<g>
</g>
<g>
</g>
<g>
</g>
<g>
</g>
<g>
</g>
<g>
</g>
<g>
</g>
<g>
</g>
<g>
</g>
</svg>
