<?xml version="1.0" encoding="iso-8859-1"?>
<!-- Generator: Adobe Illustrator 19.1.0, SVG Export Plug-In . SVG Version: 6.00 Build 0)  -->
<svg version="1.1" id="Capa_1" xmlns="http://www.w3.org/2000/svg" xmlns:xlink="http://www.w3.org/1999/xlink" x="0px" y="0px"
	 viewBox="0 0 491.912 491.912" style="enable-background:new 0 0 491.912 491.912;" xml:space="preserve">
<g>
	<path d="M491.316,123.056c-1.9-8.2-7.9-13.3-13.4-17.4c-37.5-28.5-79.8-50.9-125.7-66.5c-0.4-0.2-0.8-0.3-1.3-0.5
		c-0.1,0-3.4-1.2-8-2.6c-3.4-1-5-1.5-5-1.5c-1.7-0.5-3.5-0.7-5.2-0.7c-9.2,0-17,6.6-18.5,15.7c-2.1,11.8-10.7,45-26,56.9
		c-12.1,9.4-26,14.2-41.2,14.2h-0.5c-0.1,0-0.1,0-0.2,0h-0.5c-15.3,0-29.2-4.8-41.2-14.2c-15.3-11.9-24-45.1-26-56.9
		c-1.6-9.1-9.4-15.7-18.5-15.7c-1.8,0-3.5,0.2-5.2,0.7c0,0-1.6,0.5-5,1.5c-4.6,1.4-7.9,2.5-8,2.6c-0.3,0.1-0.6,0.2-0.8,0.3
		c-46.3,15.4-89.5,38.2-128.3,67.9c-13.4,9.9-16.1,21.1-9,36.1c13.5,28.8,23.9,50.9,33.7,71.6c2,4.2,8,16.8,24.2,16.8
		c2.4,0,5-0.3,8-0.9c13.7-2.6,27.1-5.2,41.3-7.9c0.5-0.1,1-0.2,1.5-0.3v42.7c0,54.6,0,109.3,0,163.9c0,18.8,10.3,29.2,29,29.2
		c33.7,0,67.3,0,101,0h106.6c20.3,0,30.1-9.9,30.1-30.4v-205.4l1.7,0.3c13.7,2.6,27.1,5.1,40.6,7.7c3.3,0.6,6.1,0.9,8.6,0.9
		c16.1,0,22.1-12.6,24.4-17.3c11.3-23.8,22.3-47.2,32.8-69.4C490.216,138.356,493.216,131.056,491.316,123.056z M119.916,193.456
		c-4.7,0.9-9.3,1.8-13.9,2.6c-14.3,2.7-27.7,5.3-41.4,7.9c-0.9,0.2-1.5,0.3-2,0.3c-0.2-0.3-0.4-0.8-0.7-1.3
		c-9.8-20.7-20.2-42.7-33.7-71.5c-0.4-0.8-0.7-1.5-0.9-2c0.4-0.3,0.9-0.7,1.5-1.2c36.6-28,77.3-49.5,121-63.9
		c0.3-0.1,0.5-0.2,0.8-0.3h0.1c0.6-0.2,1.6-0.5,2.8-0.9c3.2,13.4,10.6,38.2,24.8,55.4L119.916,193.456z M352.316,427.656
		c0,1.5-0.1,2.5-0.1,3.3c-0.7,0.1-1.7,0.1-3,0.1h-106.6c-33.7,0-67.3,0-101,0c-0.8,0-1.4,0-1.9-0.1c0-0.5-0.1-1.2-0.1-2.1
		c0-54.6,0-109.3,0-163.9v-52.9l59.8-76.7c14.1,8,29.5,12.1,46.3,12.1h0.6h0.6c16.8,0,32.5-4.1,46.6-12.3l58.8,75.4V427.656z
		 M462.916,133.056c-10.5,22.2-21.5,45.5-32.7,69.3c-0.4,0.8-0.7,1.4-0.9,1.8c-0.6-0.1-1.4-0.2-2.6-0.4c-13.5-2.6-26.9-5.1-40.6-7.7
		l-12.8-2.4l-58.9-75.5c14-17.1,21.4-41.7,24.5-55c1.2,0.4,2.2,0.7,2.8,0.9c0.4,0.2,0.8,0.3,1.2,0.5c43.4,14.7,83.4,35.8,118.8,62.7
		c1.3,1,2.2,1.8,2.8,2.3C464.116,130.256,463.716,131.456,462.916,133.056z"/>
</g>
<g>
</g>
<g>
</g>
<g>
</g>
<g>
</g>
<g>
</g>
<g>
</g>
<g>
</g>
<g>
</g>
<g>
</g>
<g>
</g>
<g>
</g>
<g>
</g>
<g>
</g>
<g>
</g>
<g>
</g>
</svg>
