<svg xmlns="http://www.w3.org/2000/svg" width="225.334" height="49.034" viewBox="0 0 225.334 49.034"><g transform="translate(0 0)" style="isolation:isolate"><g style="isolation:isolate"><path d="M1128.259,794.205v38.239h-12.746V794.205h-10.47v-10.8h33.687v10.8Z" transform="translate(-1105.042 -783.41)" fill="#fff"/><path d="M1191.192,832.444h-15.868l-12.161-18.859v18.859h-12.746V783.41h19.835a19.47,19.47,0,0,1,7.153,1.2,13.473,13.473,0,0,1,8.032,8.1,16.791,16.791,0,0,1,1.007,5.853,14.384,14.384,0,0,1-2.7,9.072,13.588,13.588,0,0,1-7.966,4.714Zm-28.029-27.118h2.406a9.294,9.294,0,0,0,5.788-1.561,6,6,0,0,0,0-8.974,9.3,9.3,0,0,0-5.788-1.561h-2.406Z" transform="translate(-1111.073 -783.41)" fill="#fff"/><path d="M1211.8,808.9l-17.884-25.492h15.218l9.1,13.4,9.039-13.4H1242.5L1224.547,808.9v23.542H1211.8Z" transform="translate(-1116.855 -783.41)" fill="#fff"/></g><g transform="translate(127.916)" style="isolation:isolate"><path d="M1252.566,832.444l8.325-49.034h12.616l9.82,26.143,9.755-26.143H1305.7l8.323,49.034H1301.34l-4.227-28.224-11.575,28.224h-5.073l-10.99-28.224-4.227,28.224Z" transform="translate(-1252.566 -783.41)" fill="#6c96a8"/><path d="M1360.64,794.205h-15.153V802.4h14.307v10.8h-14.307v8.454h15.153v10.8h-27.9V783.41h27.9Z" transform="translate(-1263.222 -783.41)" fill="#6c96a8"/></g></g></svg>